# xmcd
#
# Track frame offsets: 
#        150
#        22865
#        47472
#        75477
#        98517
#        116215
#        147150
#        164602
#        184057
#        199038
#
# Disc length: 2806 seconds
#
# Revision: 0
# Processed by: cddbd v1.5.2PL0 Copyright (c) Steve Scherf et al.
# Submitted via: ExactAudioCopyFreeDBPlugin 1.0
#
DISCID=770af40a
DTITLE=Beginning Of The End - Beginning Of The End
DYEAR=1976
DGENRE=Funk
TTITLE0=Super Woman
TTITLE1=Trip To Nowhere
TTITLE2=Jamaica
TTITLE3=I've Got The News
TTITLE4=Falling Apart At The Seams
TTITLE5=That's What I Get
TTITLE6=Bluestrain
TTITLE7=Jump In The Water
TTITLE8=Bahamian Boogie
TTITLE9=Gee Whiz, It's Christmas (Bonus Track)
EXTD=
EXTT0=
EXTT1=
EXTT2=
EXTT3=
EXTT4=
EXTT5=
EXTT6=
EXTT7=
EXTT8=
EXTT9=
PLAYORDER=
